<svg xmlns="http://www.w3.org/2000/svg" width="256" height="256" viewBox="0 0 256 256"><path d="M97.8 148.1H84.2l-18.3 21.5 2.9 4.1 35-18.4-6-7.2zm-25.2-14.9h113.2v10.76H72.6zm98.9-4.2a51.6 51.6 0 0 0 2.5-15.7 44.8 44.8 0 0 0-89.6 0c0 5.4.4 11 2.4 15.7zm-84.4 40h28.1l-8.5-10.4L87.1 169zm71.1-20.9l-6.2 7.2 35.2 18.4 2.9-3.9-18.2-21.7h-13.7z"/><path d="M128 2L18.9 65v126L128 254l109.1-63V65zm66.2 168.8l-4.7 6.8a2.2 2.2 0 0 1-2.7.7l-9.9-5.2H79l-10 5.2a2.1 2.1 0 0 1-2.6-.7l-4.8-6.8a2.3 2.3 0 0 1 .2-2.5L79 148.1h-8.5a2.1 2.1 0 0 1-2.1-2.1v-14.9a2 2 0 0 1 2.1-2.1h12a59.6 59.6 0 0 1-2.3-15.7c0-26.7 22-48.8 49.1-48.8a49.6 49.6 0 0 1 46.5 64.5h12a1.9 1.9 0 0 1 2.1 2.1V146a2 2 0 0 1-2.1 2.1h-10.5l16.9 20.2a2 2 0 0 1 0 2.5z"/><path d="M140.9 169H169l-19.7-10.4-8.4 10.4zm-37.7-20.9l17.4 20.9h14.9l17.4-20.9h-49.7z"/></svg>