<svg xmlns="http://www.w3.org/2000/svg"><symbol id="mecha-stilts" viewBox="0 0 256 256"><path d="M72.3 147.4H128v22.97H72.3zm55.6-19.6V86l-29.8 41.8h29.8zm4.2-46.2v46.2h57.1a61.6 61.6 0 0 0-57.1-46.2zm0 65.8h9.3v22.97h-9.3zm-6.2-65.6c-26.5 1.7-48.7 20.9-55.1 46H93z"/><path d="M130 2L20.9 65v126L130 254l109.1-63V65zm89.2 145.4h-27.3v25.1a2.1 2.1 0 0 1-2.1 2.1H70.2a2 2 0 0 1-2.1-2.1v-25.1H40.8a2.1 2.1 0 1 1 0-4.1h15.5v-13.4a2 2 0 0 1 2.1-2.1h8.1a65.6 65.6 0 0 1 63.3-50.3c.2-.2.4-.2.8 0a65.3 65.3 0 0 1 62.9 50.3h8.1a2 2 0 0 1 2.1 2.1v13.4h15.5a2.1 2.1 0 1 1 0 4.1z"/><path d="M60.5 131.9h139.1v11.38H60.5zm85 15.5h42.2v22.97h-42.2z"/></symbol><symbol id="super-domes" viewBox="0 0 256 256"><path d="M96.5 158.4h20.7v13.04H96.5zm24.9 0h13.2v13.04h-13.2zm17.4 0h20.7v13.04h-20.7zM128 72.1c-24.2 0-44.5 14.7-45.5 41.4h91c-1-26.7-21.3-41.4-45.5-41.4zm-48.8 86.3h13.2v13.04H79.2zm-12.5-4.2h122.5v-36.6H66.7zm60.3-14h50.5a2.1 2.1 0 0 1 0 4.1H127a2.1 2.1 0 1 1 0-4.1z"/><path d="M128 2L18.9 65v126L128 254l109.1-63V65zm65.4 154.3a1.9 1.9 0 0 1-2.1 2.1H181v13h10.3a2.1 2.1 0 0 1 0 4.2H64.7a2.1 2.1 0 0 1 0-4.2H75v-13H64.7a1.9 1.9 0 0 1-2.1-2.1v-40.8a1.9 1.9 0 0 1 2.1-2h13.6c1.1-29.4 23-45.6 49.7-45.6s48.6 16.2 49.7 45.6h13.6a1.9 1.9 0 0 1 2.1 2z"/><path d="M163.6 158.4h13.2v13.04h-13.2z"/></symbol><symbol id="space-bubbles" viewBox="0 0 256 256"><path d="M97.8 148.1H84.2l-18.3 21.5 2.9 4.1 35-18.4-6-7.2zm-25.2-14.9h113.2v10.76H72.6zm98.9-4.2a51.6 51.6 0 0 0 2.5-15.7 44.8 44.8 0 0 0-89.6 0c0 5.4.4 11 2.4 15.7zm-84.4 40h28.1l-8.5-10.4L87.1 169zm71.1-20.9l-6.2 7.2 35.2 18.4 2.9-3.9-18.2-21.7h-13.7z"/><path d="M128 2L18.9 65v126L128 254l109.1-63V65zm66.2 168.8l-4.7 6.8a2.2 2.2 0 0 1-2.7.7l-9.9-5.2H79l-10 5.2a2.1 2.1 0 0 1-2.6-.7l-4.8-6.8a2.3 2.3 0 0 1 .2-2.5L79 148.1h-8.5a2.1 2.1 0 0 1-2.1-2.1v-14.9a2 2 0 0 1 2.1-2.1h12a59.6 59.6 0 0 1-2.3-15.7c0-26.7 22-48.8 49.1-48.8a49.6 49.6 0 0 1 46.5 64.5h12a1.9 1.9 0 0 1 2.1 2.1V146a2 2 0 0 1-2.1 2.1h-10.5l16.9 20.2a2 2 0 0 1 0 2.5z"/><path d="M140.9 169H169l-19.7-10.4-8.4 10.4zm-37.7-20.9l17.4 20.9h14.9l17.4-20.9h-49.7z"/></symbol></svg>