<svg xmlns="http://www.w3.org/2000/svg"><symbol id="super-domes" viewBox="0 0 256 256"><path d="M128 2l109.1 63v126L128 254 18.9 191V65L128 2z"/><path fill="#fff" d="M64.7 175.6a2.1 2.1 0 0 1 0-4.2H75v-13H64.7a1.9 1.9 0 0 1-2.1-2.1v-40.8a1.9 1.9 0 0 1 2.1-2h13.6c1.1-29.4 23-45.6 49.7-45.6s48.6 16.2 49.7 45.6h13.6a1.9 1.9 0 0 1 2.1 2v40.8a1.9 1.9 0 0 1-2.1 2.1H181v13h10.3a2.1 2.1 0 0 1 0 4.2zm2-58v36.6h122.6v-36.6zm12.5 40.8v13h13.2v-13zm3.3-44.9h91c-1-26.7-21.3-41.4-45.5-41.4s-44.5 14.7-45.5 41.4zm14 44.9v13h20.7v-13zm24.9 0v13h13.2v-13zm56.1-14.1H127a2.1 2.1 0 1 1 0-4.1h50.5a2.1 2.1 0 0 1 0 4.1zm-38.7 14.1v13h20.7v-13zm24.8 0v13h13.2v-13z"/></symbol><symbol id="mecha-stilts" viewBox="0 0 256 256"><path d="M130 2l109.1 63v126L130 254 20.9 191V65L130 2z"/><path fill="#fff" d="M70.2 174.6a2 2 0 0 1-2.1-2.1v-25.1H40.8a2.1 2.1 0 1 1 0-4.1h15.5v-13.4a2 2 0 0 1 2.1-2.1h8.1a65.6 65.6 0 0 1 63.3-50.3c.2-.2.4-.2.8 0a65.3 65.3 0 0 1 62.9 50.3h8.1a2 2 0 0 1 2.1 2.1v13.4h15.5a2.1 2.1 0 1 1 0 4.1h-27.3v25.1a2.1 2.1 0 0 1-2.1 2.1zm-9.7-42.7v11.4h139v-11.4zm65.4-50.1c-26.5 1.7-48.7 20.9-55.1 46H93zm-53.6 65.6v23h55.6v-23zM127.9 86l-29.8 41.8h29.8zm4.2-4.4v46.2h57.1a61.6 61.6 0 0 0-57.1-46.2zm0 65.8v23h9.3v-23zm13.4 0v23h42.2v-23z"/></symbol><symbol id="space-bubbles" viewBox="0 0 256 256"><path d="M128 2l109.1 63v126L128 254 18.9 191V65L128 2z"/><path fill="#fff" d="M66.4 177.6l-4.8-6.8a2.3 2.3 0 0 1 .2-2.5L79 148.1h-8.5a2.1 2.1 0 0 1-2.1-2.1v-14.9a2 2 0 0 1 2.1-2.1h12a59.6 59.6 0 0 1-2.3-15.7c0-26.7 22-48.8 49.1-48.8a49.6 49.6 0 0 1 46.5 64.5h12a1.9 1.9 0 0 1 2.1 2.1V146a2 2 0 0 1-2.1 2.1h-10.5l16.9 20.2a2 2 0 0 1 0 2.5l-4.7 6.8a2.2 2.2 0 0 1-2.7.7l-9.9-5.2H79l-10 5.2a2.1 2.1 0 0 1-2.6-.7zm31.4-29.5H84.2l-18.3 21.5 2.9 4.1 35-18.4zm-25.2-14.9v10.7h113.2v-10.7zm14.2-4.2h84.7a51.6 51.6 0 0 0 2.5-15.7 44.8 44.8 0 0 0-89.6 0c0 5.4.4 11 2.4 15.7zm19.9 29.6L87.1 169h28.1zm-3.5-10.5l17.4 20.9h14.9l17.4-20.9zm46.1 10.5l-8.4 10.4H169zm22.6-10.5h-13.7l-6.2 7.2 35.2 18.4 2.9-3.9z"/></symbol></svg>